<svg width="47" height="45" viewBox="0 0 47 45" fill="none" xmlns="http://www.w3.org/2000/svg">
<path d="M42.1041 20.4375V7.6875C42.1041 4.875 40.8508 3.75 37.737 3.75H29.8253C26.7116 3.75 25.4583 4.875 25.4583 7.6875V20.4375C25.4583 23.25 26.7116 24.375 29.8253 24.375H37.737C40.8508 24.375 42.1041 23.25 42.1041 20.4375ZM21.5416 24.5625V37.3125C21.5416 40.125 20.2883 41.25 17.1745 41.25H9.26284C6.14909 41.25 4.89575 40.125 4.89575 37.3125V24.5625C4.89575 21.75 6.14909 20.625 9.26284 20.625H17.1745C20.2883 20.625 21.5416 21.75 21.5416 24.5625Z" fill="white"/>
<path opacity="0.4" d="M42.1041 37.3125V32.0625C42.1041 29.25 40.8508 28.125 37.737 28.125H29.8253C26.7116 28.125 25.4583 29.25 25.4583 32.0625V37.3125C25.4583 40.125 26.7116 41.25 29.8253 41.25H37.737C40.8508 41.25 42.1041 40.125 42.1041 37.3125ZM21.5416 12.9375V7.6875C21.5416 4.875 20.2883 3.75 17.1745 3.75H9.26284C6.14909 3.75 4.89575 4.875 4.89575 7.6875V12.9375C4.89575 15.75 6.14909 16.875 9.26284 16.875H17.1745C20.2883 16.875 21.5416 15.75 21.5416 12.9375Z" fill="white"/>
</svg>
