<svg width="24" height="24" viewBox="0 0 24 24" fill="none" xmlns="http://www.w3.org/2000/svg">
<path opacity="0.4" d="M12 22C17.523 22 22 17.523 22 12C22 6.477 17.523 2 12 2C6.477 2 2 6.477 2 12C2 17.523 6.477 22 12 22Z" fill="white"/>
<path d="M11.9999 15.01C11.8099 15.01 11.6199 14.94 11.4699 14.79L7.93987 11.26C7.80039 11.1189 7.72217 10.9285 7.72217 10.73C7.72217 10.5316 7.80039 10.3412 7.93987 10.2C8.22987 9.91004 8.70987 9.91004 8.99987 10.2L11.9999 13.2L14.9999 10.2C15.2899 9.91004 15.7699 9.91004 16.0599 10.2C16.3499 10.49 16.3499 10.97 16.0599 11.26L12.5299 14.79C12.3799 14.94 12.1899 15.01 11.9999 15.01Z" fill="white"/>
</svg>
