<svg width="50" height="50" viewBox="0 0 50 50" fill="none" xmlns="http://www.w3.org/2000/svg">
<path opacity="0.6" d="M29.1665 33.3333C29.1665 37.0208 27.5623 40.3541 24.9998 42.6249C22.7192 44.696 19.7471 45.8402 16.6665 45.8333C9.77067 45.8333 4.1665 40.2291 4.1665 33.3333C4.1665 27.5833 8.08317 22.7083 13.3748 21.2708C14.092 23.074 15.2179 24.6862 16.664 25.9804C18.11 27.2746 19.8367 28.2155 21.7082 28.7291C22.7498 29.0208 23.854 29.1666 24.9998 29.1666C26.1457 29.1666 27.2498 29.0208 28.2915 28.7291C28.854 30.1458 29.1665 31.7083 29.1665 33.3333Z" fill="white"/>
<path d="M37.5 16.6667C37.5033 19.4097 36.6032 22.0773 34.9388 24.2576C33.2744 26.4378 30.9384 28.0093 28.2917 28.7292C27.25 29.0209 26.1458 29.1667 25 29.1667C23.8542 29.1667 22.75 29.0209 21.7083 28.7292C19.0616 28.0093 16.7256 26.4378 15.0612 24.2576C13.3968 22.0773 12.4968 19.4097 12.5 16.6667C12.5 9.77091 18.1042 4.16675 25 4.16675C31.8958 4.16675 37.5 9.77091 37.5 16.6667Z" fill="white"/>
<path opacity="0.4" d="M45.8333 33.3333C45.8333 40.2291 40.2292 45.8333 33.3333 45.8333C30.2527 45.8402 27.2806 44.696 25 42.6249C27.5625 40.3541 29.1667 37.0208 29.1667 33.3333C29.1667 31.7083 28.8542 30.1458 28.2917 28.7291C32.1042 27.6874 35.1875 24.8958 36.625 21.2708C41.9167 22.7083 45.8333 27.5833 45.8333 33.3333Z" fill="white"/>
</svg>
