<svg width="129" height="129" viewBox="0 0 129 129" fill="none" xmlns="http://www.w3.org/2000/svg">
<path opacity="0.4" d="M86.8601 53.75C86.8601 53.75 86.0538 59.125 69.3913 80.625C53.7501 100.889 76.3788 116.315 79.0663 118.089C79.2276 118.196 79.3888 118.196 79.6038 118.089C83.2588 115.831 123.948 89.655 86.8601 53.75Z" fill="white"/>
<path d="M73.96 41.8713C73.96 29.5088 69.1225 18.2213 64.285 11.7713C62.6725 10.1588 59.985 10.6963 59.4475 12.8463C57.2975 20.9088 50.8475 38.1088 35.26 58.5338C15.3725 84.3338 33.6475 112.284 52.46 117.659C62.6725 120.346 49.7725 112.284 48.16 95.6213C46.5475 74.6588 73.96 59.0713 73.96 41.8713Z" fill="white"/>
</svg>
