<svg width="139" height="139" viewBox="0 0 139 139" fill="none" xmlns="http://www.w3.org/2000/svg">
<path opacity="0.4" d="M93.7787 11.5834H45.3024C24.2207 11.5834 11.6528 24.1513 11.6528 45.233V93.7092C11.6528 114.791 24.2207 127.359 45.3024 127.359H93.7787C114.86 127.359 127.428 114.791 127.428 93.7092V45.233C127.428 24.1513 114.86 11.5834 93.7787 11.5834Z" fill="#A562E3"/>
<path d="M34.75 86.2495C32.3754 86.2495 30.4062 84.2803 30.4062 81.9057V57.0595C30.4062 54.6849 32.3754 52.7157 34.75 52.7157C37.1246 52.7157 39.0938 54.6849 39.0938 57.0595V81.9057C39.0938 84.3382 37.1246 86.2495 34.75 86.2495ZM52.125 94.52C49.7504 94.52 47.7812 92.5508 47.7812 90.1762V48.8237C47.7812 46.4491 49.7504 44.48 52.125 44.48C54.4996 44.48 56.4688 46.4491 56.4688 48.8237V90.1762C56.4688 92.6087 54.4996 94.52 52.125 94.52ZM69.5 102.802C67.1254 102.802 65.1562 100.833 65.1562 98.4583V40.5416C65.1562 38.167 67.1254 36.1979 69.5 36.1979C71.8746 36.1979 73.8438 38.167 73.8438 40.5416V98.4583C73.8438 100.833 71.8746 102.802 69.5 102.802ZM86.875 94.52C84.5004 94.52 82.5312 92.5508 82.5312 90.1762V48.8237C82.5312 46.4491 84.5004 44.48 86.875 44.48C89.2496 44.48 91.2188 46.4491 91.2188 48.8237V90.1762C91.2188 92.6087 89.2496 94.52 86.875 94.52ZM104.25 86.2495C101.875 86.2495 99.9062 84.2803 99.9062 81.9057V57.0595C99.9062 54.6849 101.875 52.7157 104.25 52.7157C106.625 52.7157 108.594 54.6849 108.594 57.0595V81.9057C108.594 84.3382 106.625 86.2495 104.25 86.2495Z" fill="#A562E3"/>
</svg>
