<svg width="48" height="48" viewBox="0 0 48 48" fill="none" xmlns="http://www.w3.org/2000/svg">
<path d="M43.26 29.3201L42.44 33.0401C41.02 39.4401 36 44.0001 28.76 44.0001H19.24C12 44.0001 6.97997 39.4401 5.55997 33.0401L4.73997 29.3201C4.33997 27.5001 5.41997 25.4401 7.15997 24.7401L9.99997 23.6001L21.02 19.1801C21.98 18.8001 23 18.6001 24 18.6001C25 18.6001 26.02 18.8001 26.98 19.1801L38 23.6001L40.84 24.7401C42.58 25.4401 43.66 27.5001 43.26 29.3201Z" fill="white"/>
<path opacity="0.4" d="M38 16V23.6L26.98 19.18C25.06 18.42 22.94 18.42 21.02 19.18L10 23.6V16C10 12.7 12.7 10 16 10H32C35.3 10 38 12.7 38 16Z" fill="white"/>
<path d="M29 10H19V6C19 4.9 19.9 4 21 4H27C28.1 4 29 4.9 29 6V10Z" fill="white"/>
</svg>
